<svg viewBox="0 0 500 500" xmlns="http://www.w3.org/2000/svg" xmlns:xlink="http://www.w3.org/1999/xlink" overflow="hidden"><g id="freepik--Floor--inject-151"><ellipse cx="249.05" cy="350.02" rx="235.61" ry="136.03" id="freepik--floor--inject-151" fill="#F0F0F0"/></g><g id="freepik--Shadow--inject-151"><path d="M384.36 397.22C368.91 388.3 368.91 373.84 384.36 364.92 399.81 356 424.86 356 440.31 364.92 455.76 373.84 455.76 388.3 440.31 397.22 424.86 406.14 399.81 406.14 384.36 397.22Z" id="freepik--shadow--inject-151" fill="#E0E0E0"/><path d="M70.12 398.46 29.48 375C27.19 373.68 27.19 371.53 29.48 370.21L265.87 233.73C268.476 232.41 271.554 232.41 274.16 233.73L314.81 257.19C317.1 258.51 317.1 260.66 314.81 261.98L78.42 398.46C75.8109 399.781 72.7291 399.781 70.12 398.46Z" id="freepik--shadow--inject-151" fill="#E0E0E0"/></g><g id="freepik--Device--inject-151"><g id="freepik--device--inject-151"><path d="M216.2 356.64 251.14 336.44C254.74 334.36 256.54 331.64 256.54 328.91 256.54 326.18 256.54 324.05 256.54 324.05L220.3 303.61C218.247 302.282 216.953 300.052 216.82 297.61L216.82 254.52 155.82 289.78 155.82 332.85C155.963 335.289 157.254 337.515 159.3 338.85L190.14 356.61C197.32 360.8 209 360.8 216.2 356.64Z" fill="#ED1C24"/><g opacity="0.6"><path d="M216.2 356.64 251.14 336.44C254.74 334.36 256.54 331.64 256.54 328.91 256.54 326.18 256.54 324.05 256.54 324.05L220.3 303.61C218.247 302.282 216.953 300.052 216.82 297.61L216.82 254.52 155.82 289.78 155.82 332.85C155.963 335.289 157.254 337.515 159.3 338.85L190.14 356.61C197.32 360.8 209 360.8 216.2 356.64Z"/></g><path d="M170.45 340.48 170.45 345.32 159.27 338.87C157.224 337.536 155.936 335.308 155.8 332.87L155.8 289.78 167.42 283.07C167.66 286.02 167.92 289.07 168.17 292.07L160 296.77 160 330.42C160.131 332.862 161.425 335.093 163.48 336.42Z" opacity="0.3"/><path d="M160 330.43C160.139 332.87 161.431 335.098 163.48 336.43L190.1 351.77C197.3 355.92 208.98 355.93 216.19 351.77L251.19 331.57C258.4 327.41 258.4 320.67 251.19 316.51L224.55 301.17C222.506 299.834 221.219 297.607 221.08 295.17L221.08 261.51 160.08 296.77Z" fill="#ED1C24"/><path d="M160 330.43C160.139 332.87 161.431 335.098 163.48 336.43L190.1 351.77C197.3 355.92 208.98 355.93 216.19 351.77L251.19 331.57C258.4 327.41 258.4 320.67 251.19 316.51L224.55 301.17C222.506 299.834 221.219 297.607 221.08 295.17L221.08 261.51 160.08 296.77Z" opacity="0.3"/><path d="M231.6 305.28 231.6 305.28 224.51 301.19C222.466 299.854 221.179 297.627 221.04 295.19L221.04 261.51 160.04 296.77 160.04 330.43C160.179 332.87 161.471 335.098 163.52 336.43L170.52 340.43Z" opacity="0.5"/><path d="M256.55 324.06 256.55 328.92C256.55 331.65 254.74 334.36 251.15 336.45L216.15 356.64C212.32 358.685 208.042 359.746 203.7 359.73L203.7 354.89C208.042 354.906 212.32 353.845 216.15 351.8L251.15 331.59C254.74 329.52 256.55 326.79 256.55 324.06Z" fill="#ED1C24"/><path d="M256.55 324.06 256.55 328.92C256.55 331.65 254.74 334.36 251.15 336.45L216.15 356.64C212.32 358.685 208.042 359.746 203.7 359.73L203.7 354.89C208.042 354.906 212.32 353.845 216.15 351.8L251.15 331.59C254.74 329.52 256.55 326.79 256.55 324.06Z" opacity="0.5"/><path d="M62 372.26C64.6743 373.552 67.8033 373.496 70.43 372.11L306.43 235.86C308.996 234.186 310.612 231.39 310.78 228.33L310.78 37.41C310.688 34.4332 309.18 31.6794 306.72 30 304.049 28.7067 300.92 28.7661 298.3 30.16L62.3 166.45C59.7422 168.135 58.1441 170.941 58 174L58 364.89C58.0905 367.842 59.5744 370.576 62 372.26Z" fill="#ED1C24"/><path d="M70.46 372.1 306.46 235.85C309.03 234.179 310.647 231.381 310.81 228.32L310.81 37.41C310.81 34.64 308.86 33.51 306.46 34.9L70.46 171.15C67.8923 172.823 66.2764 175.62 66.11 178.68L66.11 369.59C66.11 372.36 68.06 373.49 70.46 372.1Z" fill="#ED1C24"/><path d="M70.46 372.1 306.46 235.85C309.03 234.179 310.647 231.381 310.81 228.32L310.81 37.41C310.81 34.64 308.86 33.51 306.46 34.9L70.46 171.15C67.8923 172.823 66.2764 175.62 66.11 178.68L66.11 369.59C66.11 372.36 68.06 373.49 70.46 372.1Z" opacity="0.5"/><path d="M69.82 377.06C67.3154 378.153 64.4577 378.095 62 376.9 59.5688 375.212 58.0842 372.469 58 369.51L58 352.13 66.15 356.85 66.15 374.23C66.1 376.76 67.71 377.91 69.82 377.06Z" fill="#ED1C24"/><path d="M69.82 377.06C67.3154 378.153 64.4577 378.095 62 376.9 59.5688 375.212 58.0842 372.469 58 369.51L58 352.13 66.15 356.85 66.15 374.23C66.1 376.76 67.71 377.91 69.82 377.06Z" opacity="0.5"/><path d="M66.1 356.85 66.1 374.23C66.1 377 68.1 378.12 70.45 376.74L306.45 240.49C309.006 238.824 310.62 236.045 310.8 233L310.8 215.54Z" fill="#ED1C24"/><path d="M66.11 356.81 66.11 374.23C66.11 377 68.11 378.12 70.46 376.74L306.46 240.49C309.012 238.822 310.622 236.043 310.8 233L310.8 215.54Z" opacity="0.3"/><path d="M74.26 335 74.26 181.39C74.3544 179.554 75.3207 177.875 76.86 176.87L300 48C301.44 47.17 302.61 47.84 302.61 49.5L302.61 203.19C302.512 205.027 301.542 206.707 300 207.71L76.87 336.55C75.43 337.38 74.26 336.7 74.26 335Z" fill="#ED1C24"/><path d="M74.26 335 74.26 181.39C74.3544 179.554 75.3207 177.875 76.86 176.87L300 48C301.44 47.17 302.61 47.84 302.61 49.5L302.61 203.19C302.512 205.027 301.542 206.707 300 207.71L76.87 336.55C75.43 337.38 74.26 336.7 74.26 335Z" fill="#263238"/><path d="M188.45 291.73C186.041 293.297 184.525 295.92 184.37 298.79 184.37 301.39 186.2 302.45 188.45 301.15 190.862 299.581 192.378 296.953 192.53 294.08 192.53 291.48 190.7 290.43 188.45 291.73Z" fill="#ED1C24"/><path d="M67.39 174.38C66.615 175.683 66.172 177.156 66.1 178.67L66.1 356.85 58 352.13 58 174C58.0525 172.481 58.4931 171.001 59.28 169.7Z" opacity="0.7"/><path d="M310.76 36.69C310.45 34.45 308.64 33.69 306.45 34.9L70.45 171.15C69.1704 171.95 68.1143 173.061 67.38 174.38L59.22 169.67C59.9592 168.352 61.0184 167.241 62.3 166.44L298.3 30.2C300.924 28.806 304.055 28.7466 306.73 30.04 308.973 31.5683 310.443 33.9943 310.76 36.69Z" opacity="0.3"/></g></g><g id="freepik--Window--inject-151"><g id="freepik--window--inject-151"><g id="freepik--window--inject-151"><g id="freepik--window--inject-151"><path d="M323.49 60.19C322.776 59.8315 321.922 59.8969 321.27 60.36L98.59 189C96.808 190.179 95.6939 192.136 95.59 194.27L95.59 346.94C95.5265 347.988 96.0158 348.993 96.88 349.59 97.37 349.86 99.99 351.38 100.77 351.8 101.332 352.086 102.004 352.048 102.53 351.7L325.16 223.06C326.942 221.881 328.056 219.924 328.16 217.79L328.16 64.33C328.251 63.539 327.887 62.7646 327.22 62.33 326.72 62 324.05 60.52 323.49 60.19Z" fill="#ED1C24"/><path d="M102.48 191.16 325.17 62.57C326.85 61.57 328.17 62.39 328.17 64.33L328.17 217.79C328.066 219.924 326.952 221.881 325.17 223.06L102.48 351.7C100.8 352.7 99.48 351.09 99.48 349.15L99.48 196.43C99.5871 194.297 100.7 192.341 102.48 191.16Z" fill="#FAFAFA"/><path d="M326.53 63.15 326.53 63.15C327.12 63.15 327.21 63.89 327.21 64.33L327.21 217.79C327.101 219.577 326.156 221.207 324.66 222.19L102 350.83C101.851 350.927 101.678 350.982 101.5 350.99 100.94 350.99 100.5 350.13 100.5 349.15L100.5 196.43C100.598 194.645 101.522 193.007 103 192L325.67 63.43C325.928 63.2638 326.224 63.1673 326.53 63.15M326.53 62.15C326.048 62.1705 325.58 62.3152 325.17 62.57L102.48 191.16C100.7 192.341 99.5871 194.297 99.48 196.43L99.48 349.15C99.48 350.69 100.34 351.99 101.48 351.99 101.833 351.983 102.178 351.883 102.48 351.7L325.16 223.06C326.942 221.881 328.056 219.924 328.16 217.79L328.16 64.33C328.16 62.95 327.48 62.15 326.48 62.15Z" fill="#E0E0E0"/><path d="M96.82 349.59C97.15 349.76 99.52 351.11 100.56 351.71 99.8027 351.082 99.3874 350.132 99.44 349.15L99.44 206.4 95.54 204.12 95.54 346.94C95.4743 347.986 95.9596 348.991 96.82 349.59Z" fill="#F0F0F0"/><path d="M328.21 64.3C328.21 62.38 326.84 61.6 325.21 62.57L102.48 191.16C100.7 192.341 99.5871 194.297 99.48 196.43L99.48 206.43 328.21 74.3Z" fill="#ED1C24"/><g opacity="0.4"><path d="M325.17 62.57 102.48 191.15C101.586 191.714 100.85 192.495 100.34 193.42L96.47 191.17C96.9791 190.277 97.7091 189.53 98.59 189L321.27 60.36C321.92 59.8937 322.774 59.8244 323.49 60.18 324.03 60.52 326.56 61.95 327.21 62.3 326.527 62.0468 325.763 62.1479 325.17 62.57Z" fill="#FFFFFF"/></g><path d="M95.54 204.13 95.54 194.22C95.5811 193.14 95.9015 192.089 96.47 191.17L100.35 193.41C99.7896 194.313 99.4759 195.348 99.44 196.41L99.44 206.41Z" opacity="0.15"/></g></g><path d="M281.25 179.42 147.88 256.42C146.565 257.274 145.736 258.704 145.65 260.27L145.65 298.51C145.736 300.076 146.564 301.506 147.88 302.36L151.77 304.6C153.172 305.309 154.828 305.309 156.23 304.6L289.58 227.6C290.896 226.742 291.724 225.308 291.81 223.74L291.81 185.49C291.724 183.924 290.895 182.494 289.58 181.64L285.68 179.4C284.284 178.702 282.64 178.71 281.25 179.42Z" fill="#ED1C24"/><path d="M291.81 185.15C291.65 184 290.72 183.58 289.6 184.23L156.23 261.23C155.572 261.639 155.031 262.211 154.66 262.89L146.31 258.07C146.684 257.401 147.221 256.837 147.87 256.43L281.25 179.43C282.648 178.719 284.302 178.719 285.7 179.43L289.6 181.67C290.803 182.458 291.608 183.726 291.81 185.15Z" fill="#FFFFFF" opacity="0.5"/><path d="M155.85 304.79C154.529 305.31 153.05 305.245 151.78 304.61L147.88 302.37C146.567 301.514 145.739 300.085 145.65 298.52L145.65 260.28C145.68 259.499 145.907 258.739 146.31 258.07L154.66 262.89C154.254 263.551 154.027 264.305 154 265.08L154 303.33C154 304.6 154.8 305.19 155.85 304.79Z" fill="#263238"/><path d="M156.23 261.23 289.6 184.23C290.83 183.52 291.83 184.09 291.83 185.51L291.83 223.76C291.744 225.328 290.916 226.762 289.6 227.62L156.25 304.62C155.02 305.33 154.02 304.75 154.02 303.33L154.02 265.09C154.101 263.525 154.922 262.092 156.23 261.23Z" fill="#ED1C24"/><path d="M245.89 199.84 147.89 256.43C147.241 256.837 146.704 257.401 146.33 258.07L154.68 262.89C155.051 262.211 155.592 261.639 156.25 261.23L254.25 204.65Z" fill="#455A64"/><path d="M254.23 204.65 156.23 261.23C154.914 262.088 154.086 263.522 154 265.09L154 303.32C154 304.74 155 305.32 156.23 304.61L254.23 248.03Z" fill="#37474F"/><path d="M178.83 256.57 229.4 227.38C231.49 226.17 233.19 227.03 233.19 229.3 233 231.886 231.589 234.226 229.39 235.6L178.83 264.8C176.74 266.01 175.03 265.15 175.03 262.88 175.221 260.292 176.632 257.949 178.83 256.57Z" fill="#ED1C24"/><path d="M189.19 266.24C189.227 266.199 189.29 266.195 189.331 266.231 189.334 266.234 189.337 266.237 189.34 266.24 189.385 266.308 189.406 266.389 189.4 266.47L189.4 272.16C189.401 272.71 189.354 273.258 189.26 273.8 189.177 274.295 189.036 274.778 188.84 275.24 188.661 275.663 188.425 276.06 188.14 276.42 187.859 276.754 187.52 277.035 187.14 277.25 186.842 277.444 186.495 277.548 186.14 277.55 185.866 277.528 185.612 277.394 185.44 277.18 185.221 276.886 185.076 276.543 185.02 276.18 184.924 275.696 184.881 275.203 184.89 274.71L184.89 269.01C184.89 268.91 184.91 268.811 184.95 268.72 184.975 268.638 185.028 268.567 185.1 268.52L185.73 268.15C185.772 268.111 185.838 268.111 185.88 268.15 185.926 268.217 185.947 268.299 185.94 268.38L185.94 274C185.932 274.309 185.963 274.618 186.03 274.92 186.058 275.113 186.141 275.294 186.27 275.44 186.361 275.549 186.498 275.608 186.64 275.6 186.811 275.589 186.976 275.534 187.12 275.44 187.298 275.334 187.46 275.202 187.6 275.05 187.756 274.87 187.884 274.668 187.98 274.45 188.093 274.193 188.177 273.925 188.23 273.65 188.288 273.32 188.315 272.985 188.31 272.65L188.31 267.02C188.313 266.92 188.337 266.821 188.38 266.73 188.405 266.648 188.458 266.577 188.53 266.53Z" fill="#FAFAFA"/><path d="M193.11 271.62C193.115 271.547 193.098 271.473 193.06 271.41 193.012 271.357 192.941 271.331 192.87 271.34 192.747 271.323 192.623 271.323 192.5 271.34L191.92 271.45C191.733 271.497 191.537 271.497 191.35 271.45 191.203 271.403 191.076 271.308 190.99 271.18 190.892 271.018 190.828 270.838 190.8 270.65 190.702 270.114 190.702 269.566 190.8 269.03 190.875 268.723 190.982 268.425 191.12 268.14 191.257 267.856 191.425 267.588 191.62 267.34 191.809 267.104 192.04 266.904 192.3 266.75 192.51 266.622 192.746 266.54 192.99 266.51 193.167 266.492 193.346 266.53 193.5 266.62 193.647 266.709 193.762 266.842 193.83 267 193.911 267.187 193.955 267.387 193.96 267.59 193.97 267.691 193.949 267.792 193.9 267.88 193.875 267.962 193.822 268.033 193.75 268.08L193.15 268.43C193.094 268.462 193.026 268.462 192.97 268.43L192.84 268.33C192.788 268.289 192.726 268.265 192.66 268.26 192.531 268.274 192.408 268.319 192.3 268.39 192.143 268.485 192.004 268.607 191.89 268.75 191.769 268.907 191.705 269.101 191.71 269.3 191.696 269.376 191.696 269.454 191.71 269.53 191.749 269.587 191.811 269.624 191.88 269.63 191.989 269.648 192.101 269.648 192.21 269.63L192.77 269.53C193.24 269.44 193.56 269.53 193.77 269.79 193.991 270.161 194.092 270.59 194.06 271.02 194.057 271.317 194.017 271.613 193.94 271.9 193.861 272.212 193.747 272.514 193.6 272.8 193.453 273.096 193.268 273.372 193.05 273.62 192.843 273.863 192.596 274.069 192.32 274.23 192.1 274.371 191.85 274.456 191.59 274.48 191.402 274.487 191.217 274.434 191.06 274.33 190.906 274.225 190.787 274.075 190.72 273.9 190.639 273.71 190.598 273.506 190.6 273.3 190.591 273.196 190.612 273.092 190.66 273 190.685 272.918 190.738 272.847 190.81 272.8L191.41 272.45C191.49 272.45 191.55 272.4 191.59 272.45L191.72 272.59C191.774 272.65 191.849 272.686 191.93 272.69 192.071 272.691 192.208 272.645 192.32 272.56 192.501 272.458 192.663 272.326 192.8 272.17 192.868 272.088 192.925 271.997 192.97 271.9 193.041 271.821 193.089 271.724 193.11 271.62Z" fill="#FAFAFA"/><path d="M195.15 268.91C195.148 268.391 195.192 267.872 195.28 267.36 195.363 266.878 195.494 266.406 195.67 265.95 195.817 265.541 196.019 265.154 196.27 264.8 196.48 264.495 196.752 264.24 197.07 264.05 197.302 263.894 197.585 263.833 197.86 263.88 198.104 263.937 198.318 264.083 198.46 264.29 198.648 264.561 198.781 264.867 198.85 265.19 198.946 265.61 198.993 266.039 198.99 266.47L198.99 267.09C198.993 267.194 198.969 267.298 198.92 267.39 198.895 267.472 198.842 267.543 198.77 267.59L196.17 269.1C196.164 269.276 196.187 269.452 196.24 269.62 196.279 269.733 196.348 269.834 196.44 269.91 196.522 269.975 196.625 270.007 196.73 270 196.851 269.986 196.967 269.945 197.07 269.88 197.221 269.798 197.357 269.69 197.47 269.56 197.572 269.445 197.66 269.317 197.73 269.18 197.773 269.101 197.819 269.024 197.87 268.95 197.913 268.899 197.964 268.855 198.02 268.82L198.64 268.46C198.684 268.425 198.746 268.425 198.79 268.46 198.843 268.524 198.865 268.608 198.85 268.69 198.839 268.885 198.799 269.077 198.73 269.26 198.644 269.537 198.53 269.805 198.39 270.06 198.234 270.353 198.046 270.628 197.83 270.88 197.615 271.138 197.358 271.357 197.07 271.53 196.834 271.685 196.551 271.752 196.27 271.72 196.024 271.661 195.81 271.511 195.67 271.3 195.473 270.997 195.34 270.656 195.28 270.3 195.189 269.842 195.146 269.377 195.15 268.91ZM197.07 265.72C196.916 265.803 196.783 265.919 196.68 266.06 196.569 266.2 196.478 266.355 196.41 266.52 196.34 266.685 196.283 266.856 196.24 267.03 196.205 267.188 196.181 267.348 196.17 267.51L197.93 266.51C197.92 266.372 197.9 266.235 197.87 266.1 197.855 265.979 197.806 265.865 197.73 265.77 197.67 265.683 197.575 265.625 197.47 265.61 197.328 265.598 197.186 265.637 197.07 265.72Z" fill="#FAFAFA"/><path d="M202.13 262.93C201.827 263.103 201.588 263.37 201.45 263.69 201.294 264.112 201.223 264.561 201.24 265.01L201.24 268.62C201.241 268.723 201.221 268.825 201.18 268.92 201.156 269.002 201.102 269.073 201.03 269.12L200.44 269.46C200.403 269.501 200.34 269.505 200.299 269.469 200.296 269.466 200.293 269.463 200.29 269.46 200.245 269.392 200.224 269.311 200.23 269.23L200.23 262.76C200.231 262.657 200.251 262.555 200.29 262.46 200.318 262.379 200.37 262.309 200.44 262.26L201.03 261.92C201.072 261.881 201.138 261.881 201.18 261.92 201.226 261.983 201.248 262.062 201.24 262.14L201.24 262.46C201.359 262.192 201.507 261.937 201.68 261.7 201.838 261.481 202.043 261.3 202.28 261.17L202.64 260.96C202.679 260.922 202.741 260.922 202.78 260.96 202.828 261.027 202.853 261.108 202.85 261.19L202.85 262.1C202.848 262.204 202.824 262.306 202.78 262.4 202.755 262.479 202.706 262.549 202.64 262.6Z" fill="#FAFAFA"/><path d="M209.59 262.45C209.627 262.409 209.69 262.405 209.731 262.441 209.734 262.444 209.737 262.447 209.74 262.45 209.785 262.518 209.806 262.599 209.8 262.68L209.8 263.68C209.799 263.783 209.779 263.885 209.74 263.98 209.706 264.054 209.654 264.119 209.59 264.17L206.17 266.17C206.128 266.209 206.062 266.209 206.02 266.17 205.975 266.106 205.954 266.028 205.96 265.95L205.96 256.95C205.961 256.847 205.981 256.745 206.02 256.65 206.048 256.572 206.101 256.505 206.17 256.46L206.8 256.09C206.842 256.051 206.908 256.051 206.95 256.09 206.995 256.154 207.016 256.232 207.01 256.31L207.01 263.92Z" fill="#FAFAFA"/><path d="M212.66 255.05C212.885 254.894 213.157 254.82 213.43 254.84 213.664 254.858 213.882 254.966 214.04 255.14 214.226 255.354 214.363 255.607 214.44 255.88 214.547 256.234 214.607 256.6 214.62 256.97 214.62 257.05 214.62 257.16 214.62 257.29L214.62 258.06C214.62 258.18 214.62 258.29 214.62 258.38 214.6 258.815 214.54 259.247 214.44 259.67 214.348 260.082 214.214 260.485 214.04 260.87 213.882 261.229 213.676 261.565 213.43 261.87 213.219 262.146 212.958 262.381 212.66 262.56 212.429 262.71 212.156 262.784 211.88 262.77 211.649 262.75 211.435 262.643 211.28 262.47 211.088 262.264 210.951 262.013 210.88 261.74 210.773 261.386 210.713 261.02 210.7 260.65 210.7 260.57 210.7 260.47 210.7 260.34L210.7 259.57C210.7 259.44 210.7 259.33 210.7 259.25 210.712 258.812 210.769 258.376 210.87 257.95 210.967 257.534 211.105 257.129 211.28 256.74 211.439 256.384 211.64 256.048 211.88 255.74 212.092 255.461 212.357 255.226 212.66 255.05ZM213.6 257.63C213.6 257.409 213.562 257.189 213.49 256.98 213.453 256.853 213.376 256.74 213.27 256.66 213.185 256.603 213.082 256.578 212.98 256.59 212.866 256.612 212.757 256.656 212.66 256.72 212.542 256.784 212.435 256.865 212.34 256.96 212.225 257.079 212.128 257.214 212.05 257.36 211.95 257.542 211.875 257.737 211.83 257.94 211.764 258.195 211.724 258.457 211.71 258.72 211.71 258.8 211.71 258.89 211.71 259L211.71 259.71C211.71 259.82 211.71 259.91 211.71 259.97 211.719 260.191 211.76 260.41 211.83 260.62 211.867 260.748 211.944 260.86 212.05 260.94 212.134 261 212.239 261.021 212.34 261 212.453 260.981 212.562 260.94 212.66 260.88 212.776 260.813 212.883 260.733 212.98 260.64 213.092 260.518 213.189 260.384 213.27 260.24 213.366 260.056 213.44 259.861 213.49 259.66 213.555 259.405 213.592 259.143 213.6 258.88 213.606 258.787 213.606 258.693 213.6 258.6L213.6 257.9C213.606 257.81 213.606 257.72 213.6 257.63Z" fill="#FAFAFA"/><path d="M217.68 260.9C217.808 260.822 217.923 260.724 218.02 260.61 218.14 260.469 218.244 260.315 218.33 260.15 218.429 259.949 218.506 259.738 218.56 259.52 218.621 259.275 218.652 259.023 218.65 258.77L218.65 258.26C218.65 258.36 218.55 258.48 218.48 258.62 218.411 258.766 218.331 258.907 218.24 259.04 218.136 259.181 218.022 259.314 217.9 259.44 217.775 259.572 217.63 259.683 217.47 259.77 217.262 259.912 217.006 259.962 216.76 259.91 216.538 259.84 216.347 259.695 216.22 259.5 216.057 259.242 215.939 258.958 215.87 258.66 215.785 258.282 215.738 257.897 215.73 257.51 215.73 257.38 215.73 257.22 215.73 257.03 215.73 256.84 215.73 256.68 215.73 256.54 215.742 256.1 215.789 255.662 215.87 255.23 215.952 254.804 216.069 254.386 216.22 253.98 216.361 253.627 216.543 253.292 216.76 252.98 216.944 252.704 217.187 252.472 217.47 252.3 217.603 252.22 217.748 252.163 217.9 252.13 218.012 252.109 218.128 252.109 218.24 252.13 218.329 252.155 218.411 252.199 218.48 252.26 218.544 252.309 218.601 252.366 218.65 252.43L218.65 252.11C218.651 252.007 218.671 251.905 218.71 251.81 218.738 251.732 218.791 251.665 218.86 251.62L219.45 251.27C219.492 251.231 219.558 251.231 219.6 251.27 219.648 251.337 219.673 251.418 219.67 251.5L219.67 258C219.697 258.974 219.516 259.942 219.14 260.84 218.845 261.546 218.334 262.141 217.68 262.54 217.457 262.678 217.202 262.758 216.94 262.77 216.733 262.783 216.526 262.73 216.35 262.62 216.181 262.493 216.044 262.329 215.95 262.14 215.852 261.912 215.798 261.668 215.79 261.42 215.781 261.316 215.801 261.212 215.85 261.12 215.874 261.038 215.928 260.967 216 260.92L216.53 260.62C216.579 260.568 216.661 260.565 216.714 260.614 216.716 260.616 216.718 260.618 216.72 260.62 216.769 260.672 216.813 260.729 216.85 260.79 216.911 260.897 217.011 260.976 217.13 261.01 217.25 261.1 217.43 261 217.68 260.9ZM216.74 256.05C216.74 256.317 216.74 256.577 216.74 256.83 216.711 257.229 216.825 257.626 217.06 257.95 217.244 258.109 217.516 258.109 217.7 257.95 217.99 257.761 218.217 257.489 218.35 257.17 218.532 256.753 218.634 256.305 218.65 255.85 218.65 255.7 218.65 255.52 218.65 255.31 218.65 255.1 218.65 254.92 218.65 254.79 218.67 254.432 218.564 254.078 218.35 253.79 218.166 253.621 217.884 253.621 217.7 253.79 217.415 253.978 217.193 254.246 217.06 254.56 216.855 255.03 216.746 255.537 216.74 256.05Z" fill="#FAFAFA"/><path d="M222 247.17C222.041 247.136 222.099 247.136 222.14 247.17 222.192 247.235 222.217 247.317 222.21 247.4L222.21 248.49C222.211 248.594 222.187 248.697 222.14 248.79 222.112 248.865 222.063 248.931 222 248.98L221.33 249.37C221.293 249.411 221.23 249.415 221.189 249.379 221.186 249.376 221.183 249.373 221.18 249.37 221.127 249.31 221.102 249.23 221.11 249.15L221.11 248.06C221.109 247.956 221.133 247.853 221.18 247.76 221.208 247.682 221.261 247.615 221.33 247.57ZM222.17 256.56C222.17 256.66 222.15 256.759 222.11 256.85 222.078 256.929 222.026 256.997 221.96 257.05L221.36 257.39C221.329 257.429 221.272 257.435 221.233 257.403 221.228 257.399 221.224 257.395 221.22 257.39 221.168 257.325 221.143 257.243 221.15 257.16L221.15 250.69C221.149 250.586 221.173 250.483 221.22 250.39 221.248 250.312 221.297 250.243 221.36 250.19L221.96 249.85C222.002 249.811 222.068 249.811 222.11 249.85 222.155 249.914 222.176 249.992 222.17 250.07Z" fill="#FAFAFA"/><path d="M227.43 253.51C227.429 253.613 227.409 253.715 227.37 253.81 227.342 253.888 227.289 253.955 227.22 254L226.62 254.35C226.581 254.388 226.519 254.388 226.48 254.35 226.428 254.285 226.403 254.203 226.41 254.12L226.41 250.6C226.441 250.185 226.365 249.768 226.19 249.39 226.05 249.14 225.83 249.1 225.52 249.28 225.211 249.488 224.982 249.795 224.87 250.15 224.703 250.622 224.622 251.12 224.63 251.62L224.63 255.15C224.629 255.253 224.609 255.355 224.57 255.45 224.546 255.532 224.492 255.603 224.42 255.65L223.83 255.99C223.793 256.031 223.73 256.035 223.689 255.999 223.686 255.996 223.683 255.993 223.68 255.99 223.634 255.927 223.612 255.848 223.62 255.77L223.62 249.3C223.619 249.197 223.639 249.095 223.68 249 223.704 248.918 223.758 248.847 223.83 248.8L224.42 248.46C224.457 248.419 224.52 248.415 224.561 248.451 224.564 248.454 224.567 248.457 224.57 248.46 224.615 248.528 224.636 248.609 224.63 248.69L224.63 249C224.762 248.695 224.922 248.404 225.11 248.13 225.275 247.878 225.498 247.668 225.76 247.52 225.988 247.354 226.271 247.282 226.55 247.32 226.774 247.376 226.963 247.525 227.07 247.73 227.215 248.001 227.31 248.295 227.35 248.6 227.403 248.998 227.43 249.399 227.43 249.8Z" fill="#FAFAFA"/><path d="M277.87 224.4 268.16 230 269.67 216.38C268.5 215.76 267.76 214.25 267.76 212.08 267.76 208.21 270.12 203.72 273.02 202.08 275.92 200.44 278.27 202.18 278.27 206.08 278.21 208.375 277.555 210.614 276.37 212.58Z" fill="#455A64"/><path d="M277.88 224.4 269.33 219.47 268.16 230.01 277.88 224.4Z" fill="#37474F"/><path d="M273 202.05C270.885 203.479 269.309 205.573 268.52 208L276.35 212.52 276.35 212.52C277.535 210.554 278.19 208.315 278.25 206.02 278.27 202.15 275.92 200.38 273 202.05Z" fill="#37474F"/><path d="M225.8 156.7C222.47 154.78 217.88 155.05 212.8 157.98 202.66 163.84 194.44 178.07 194.44 189.78 194.44 195.66 196.52 199.78 199.86 201.68L206.33 205.44C209.65 207.36 214.24 207.08 219.33 204.15 229.47 198.3 237.69 184.06 237.69 172.35 237.69 166.5 235.63 162.35 232.31 160.48" fill="#ED1C24"/><path d="M219.32 161.75C209.18 167.61 200.96 181.85 200.96 193.55 200.96 205.25 209.18 210.01 219.32 204.15 229.46 198.29 237.69 184.06 237.68 172.35 237.67 160.64 229.45 155.9 219.32 161.75Z" fill="#ED1C24"/><path d="M229.45 187.73 229.45 189.07C227.021 193.406 223.537 197.059 219.32 199.69 215.37 201.96 211.8 202.21 209.18 200.76L209.18 198C209.452 192.173 212.531 186.84 217.44 183.69L220.11 182.15C222.47 180.79 224.77 180.61 226.57 181.66 228.37 182.71 229.45 184.92 229.45 187.73Z" fill="#ED1C24"/><path d="M225.8 156.7 232.3 160.48C228.98 158.55 224.39 158.82 219.3 161.75 212.66 165.59 206.84 173.02 203.62 180.98L197.11 177.21C200.34 169.21 206.11 161.82 212.79 157.98 217.89 155.06 222.48 154.78 225.8 156.7Z" fill="#FFFFFF" opacity="0.4"/><path d="M206.1 205.29 199.87 201.68C196.53 199.78 194.45 195.68 194.45 189.78L200.96 193.56C201 199.26 202.92 203.32 206.1 205.29Z" opacity="0.2"/><path d="M197.13 177.21 203.64 180.98C201.972 184.965 201.076 189.231 201 193.55L201 193.55 194.49 189.77C194.57 185.454 195.466 181.193 197.13 177.21Z" opacity="0.1"/><path d="M217 181.52C216.38 181.527 215.769 181.368 215.23 181.06 213.907 180.178 213.174 178.643 213.32 177.06 213.492 173.363 215.445 169.979 218.56 167.98L218.56 167.98C220.252 166.629 222.718 166.906 224.069 168.598 224.753 169.454 225.047 170.557 224.88 171.64 224.705 175.336 222.752 178.719 219.64 180.72 218.846 181.215 217.935 181.492 217 181.52Z" fill="#FFFFFF"/><path d="M226.57 181.65C224.77 180.6 222.47 180.78 220.11 182.14L217.44 183.68C212.528 186.832 209.449 192.17 209.18 198L209.18 200.77C211.8 202.22 215.37 201.97 219.32 199.7 223.537 197.069 227.021 193.416 229.45 189.08L229.45 187.74C229.45 184.92 228.41 182.71 226.57 181.65Z" fill="#FFFFFF"/></g></g><g id="freepik--Plants--inject-151"><g id="freepik--plants--inject-151"><path d="M432.15 354.65C432.15 354.65 433.48 342.97 439.29 333.9 445.1 324.83 453.08 319.18 460.53 318.59 467.98 318 474 324.86 466.03 329.59 458.06 334.32 443.9 339.1 437.38 356.7Z" fill="#ED1C24"/><path d="M432.15 354.65C432.15 354.65 433.48 342.97 439.29 333.9 445.1 324.83 453.08 319.18 460.53 318.59 467.98 318 474 324.86 466.03 329.59 458.06 334.32 443.9 339.1 437.38 356.7Z" opacity="0.1"/><path d="M434.34 351.61 434.26 351.61C434.056 351.527 433.958 351.294 434.04 351.09 441.9 331.74 456.86 323.65 463.68 322.09 463.895 322.04 464.11 322.175 464.16 322.39 464.21 322.605 464.075 322.82 463.86 322.87 457.18 324.41 442.51 332.35 434.78 351.4 434.701 351.564 434.518 351.652 434.34 351.61Z" fill="#FFFFFF"/><path d="M474.12 351.84C473.45 353.36 471.79 354.16 470.25 354.78 468.71 355.4 467.03 356.07 466.19 357.51 464.51 360.41 467.27 364.51 465.47 367.32 464.614 368.463 463.328 369.207 461.91 369.38 460.76 369.59 459.59 369.59 458.43 369.69 457.874 369.683 457.32 369.639 456.77 369.56 455.154 369.199 453.464 369.379 451.96 370.07 449.65 371.37 448.96 374.28 447.54 376.53 445.784 379.211 442.947 380.993 439.77 381.41 438.77 381.54 436.77 381.73 435.77 381.14 435.692 381.102 435.618 381.055 435.55 381L435.55 381C435.4 380.84 435.22 380.63 435.14 380.52 435.135 380.497 435.135 380.473 435.14 380.45 434.73 378.94 435.4 377.38 435.43 375.82L435.43 375.54C435.36 373.73 435.31 371.93 435.27 370.13 435.183 366.797 435.15 363.463 435.17 360.13 435.17 357.97 434.93 355.61 435.85 353.58 436.85 351.34 439.37 351.29 440.32 349.1 440.7 348.22 440.9 347.29 441.27 346.4 442.436 343.762 444.972 341.993 447.85 341.81 452.24 341.59 456.17 345.14 460.56 344.81 461.69 344.72 462.8 344.37 463.92 344.17 467.47 343.5 471.58 344.51 473.58 347.52 474.471 348.779 474.674 350.4 474.12 351.84Z" fill="#ED1C24"/><path d="M434.7 373.52 434.7 373.52C434.503 373.462 434.388 373.258 434.44 373.06 440.5 350.32 464.44 347.06 470.07 347.44 470.274 347.45 470.431 347.624 470.421 347.828 470.421 347.832 470.42 347.836 470.42 347.84 470.399 348.042 470.223 348.192 470.02 348.18 464.53 347.79 441.09 351 435.16 373.26 435.102 373.457 434.898 373.572 434.7 373.52Z" fill="#FFFFFF"/><path d="M461.33 362C461.254 361.989 461.184 361.954 461.13 361.9 456.649 358.016 450.669 356.333 444.82 357.31 444.618 357.329 444.436 357.19 444.4 356.99 444.37 356.786 444.507 356.596 444.71 356.56 450.811 355.545 457.046 357.309 461.71 361.37 461.856 361.513 461.859 361.747 461.717 361.893 461.715 361.896 461.712 361.898 461.71 361.9 461.617 362.011 461.465 362.051 461.33 362Z" fill="#FFFFFF"/></g></g><g id="freepik--Clouds--inject-151"><g id="freepik--clouds--inject-151"><path d="M377.12 80 380.3 81.22 380.3 74.22C380.3 68.66 384.73 67.33 389.54 70.11L389.54 70.11C394.36 72.89 398.26 79.64 398.26 85.2L398.26 86.2C399.618 85.7851 401.091 86.0134 402.26 86.82L402.26 86.82C405.965 89.2355 408.294 93.2739 408.53 97.69L408.53 98.15 412.97 100.71C415.406 102.3 416.94 104.955 417.1 107.86 417.1 110.5 415.25 111.57 412.97 110.25L377.12 89.54C374.682 87.9533 373.15 85.2953 373 82.39 373 79.76 374.83 78.69 377.12 80Z" fill="#E6E6E6"/><path d="M419.71 74.46 425.48 77.79C425.448 77.5379 425.432 77.2841 425.43 77.03L425.43 75.36C425.43 72.36 427.51 71.18 430.09 72.67 431.199 73.3488 432.147 74.2597 432.87 75.34 433.29 71.6 436.23 70.21 439.79 72.26 443.916 74.9447 446.516 79.435 446.79 84.35L446.79 86.85C446.816 87.8489 446.614 88.8406 446.2 89.75L451 92.51C452.517 93.5161 453.467 95.1821 453.56 97 453.56 98.65 452.4 99.32 450.97 98.5L419.71 80.5C418.176 79.5008 417.214 77.828 417.12 76 417.12 74.31 418.28 73.64 419.71 74.46Z" fill="#E6E6E6"/></g></g><g id="freepik--Character--inject-151"><g id="freepik--character--inject-151"><path d="M397.37 226.23C393.17 233.33 389.13 239.5 386.29 242.46 380.9 244.96 368.24 248.82 363.29 249.46 362.421 249.571 361.54 249.365 360.81 248.88 358.86 247.6 357.35 247.39 355.3 246.68 353.69 246.13 353.01 245.36 352.71 245.68 352.065 246.435 352.141 247.567 352.88 248.23 353.649 248.961 354.502 249.599 355.42 250.13 353.224 250.675 350.934 250.716 348.72 250.25 344.43 249.12 342.41 251.18 345.31 255.84 346.31 257.5 350.43 260.17 358.71 259.45 361.664 259.291 364.606 258.957 367.52 258.45 375.46 256.75 384.29 255.11 389.72 253.45 391.74 252.656 393.548 251.403 395 249.79 404.13 239.38 407.16 231.96 411.16 225.22L410.82 214.22C404.34 214 400.88 220.29 397.37 226.23Z" fill="#FFA8A7"/><path d="M411.93 214C408.1 213.462 404.288 215.091 402.03 218.23 397.59 223.92 389.73 237.58 389.73 237.58 389.73 237.58 392.3 244.43 399.24 245.58L410.39 230.52C410.39 230.52 415.67 220.06 411.93 214Z" fill="#455A64"/><rect x="428.77" y="367.54" width="7.27" height="12.96" fill="#FFA8A7"/><path d="M410.84 366.85 403.58 367.11 403.21 353.39 410.84 353.13 410.84 366.85Z" fill="#FFA8A7"/><path d="M437.06 255.35C437.06 262.57 436 320.74 436 320.74 436.16 322.82 438 326.66 437.63 334.65 437.08 345.5 436.35 374.02 436.35 374.02 433.821 375.314 430.838 375.373 428.26 374.18 428.26 374.18 422.36 334.18 421.06 323.47 419.92 314.08 417 283 417 283L413.07 319.74C413.903 323.682 414.206 327.718 413.97 331.74 413.63 336.74 411.29 362.62 411.29 362.62 408.745 364.121 405.651 364.368 402.9 363.29 402.9 363.29 398.76 324.29 398.68 319.71 398.58 314.51 401.1 255.29 401.1 255.29Z" fill="#37474F"/><path d="M428.77 376.76 428.77 375.68C428.07 375.99 426.46 382.41 423.57 385.15 421.28 387.33 418.16 389.84 417.36 392.27 416.56 394.7 421.71 396.19 423.86 395.8 426.34 395.34 430.66 393.51 431.74 391.8 432.82 390.09 433.33 387.61 434.21 386.37 435.09 385.13 437.12 383.75 437.59 382.31 437.737 380.963 437.597 379.6 437.18 378.31 436.84 376.97 436.48 375.5 436.04 375.63L436.04 376.45C435.015 377.291 433.726 377.745 432.4 377.73 431.34 377.82 428.76 377.6 428.77 376.76Z" fill="#263238"/><path d="M403.5 364.77C403.12 364.77 402.81 365.34 401.98 366.28 400.746 367.578 399.302 368.66 397.71 369.48 394.99 370.9 389.71 373.08 387.3 374.21 385.8 374.91 385.87 376.79 387.42 377.86 388.97 378.93 392.7 379.7 397.18 378.66 399.62 378.09 402.8 375.74 404.82 375.87 406.84 376 410.59 375.96 412.08 374.87 413.57 373.78 412.97 371.52 412.55 369.57 412.09 367.43 411.55 364.1 410.84 364.25L410.84 365C409.97 366.38 405.46 366.94 403.54 365.93Z" fill="#263238"/><path d="M417 283C413.218 281.762 409.761 279.695 406.88 276.95 406.88 276.95 408.88 280.76 414.64 284.31L413.4 317.12Z" fill="#263238"/><path d="M433 215.06C433 215.06 439 216.44 438.57 227.28L437.32 244.53 437.32 270.43C431.98 276.49 408.32 276.05 400.17 269.95 400.17 269.95 401.09 239.3 401.64 227.5 402.03 219.12 403.96 214.9 412.2 213.98L422.33 214.42Z" fill="#ED1C24"/><path d="M425.36 192.54C425.504 198.613 420.698 203.654 414.625 203.798 414.596 203.799 414.568 203.8 414.54 203.8 408.54 203.8 405.02 198.62 403.72 192.54 401.32 181.41 408.56 181.27 414.54 181.27 420.639 181.396 425.483 186.441 425.36 192.54Z" fill="#263238"/><path d="M430.88 197.09C430.88 197.09 429.22 205.21 428.55 206.55 428.129 207.356 427.412 207.969 426.55 208.26L426.67 202.55Z" fill="#263238"/><path d="M428.79 185.46C428.79 185.46 429.98 185.16 431.25 187.14 432.33 188.83 432.58 192.63 430.88 197.14L427.75 197.52Z" fill="#263238"/><path d="M429.94 187.11 433.78 187.18C433.885 186.186 433.165 185.295 432.171 185.189 432.124 185.184 432.077 185.181 432.03 185.18 430.943 185.196 430.042 186.028 429.94 187.11Z" fill="#263238"/><path d="M430.41 186.2 433.25 183.47C432.596 182.699 431.441 182.604 430.671 183.258 430.632 183.29 430.595 183.324 430.56 183.36 429.779 184.124 429.714 185.358 430.41 186.2Z" fill="#263238"/><path d="M426.81 197.47C427.44 197.86 428.33 196.61 429.11 195.76 429.89 194.91 432.31 194.13 433.57 196.89 434.83 199.65 432.68 202.38 430.88 203.28 427.65 204.88 426.63 202.55 426.63 202.55L426.36 215.41C421.82 222.41 411.52 222.19 415.23 215.07L415.23 211.16C413.704 211.414 412.154 211.494 410.61 211.4 408.09 211 406.51 208.93 405.74 206.09 404.52 201.53 404.05 197.85 405.09 188.88 406.23 179.06 417.21 178.95 423.09 182.88 428.97 186.81 426.81 197.47 426.81 197.47Z" fill="#FFA8A7"/><path d="M413.13 187.35C415.75 187.09 418.34 186.55 420.97 186.35 421.537 186.281 422.112 186.308 422.67 186.43 424.67 186.98 424.43 189.32 424.75 190.95 425.3 193.77 425.75 198.54 426.81 198.56 427.13 198.56 428.33 196.49 429.11 195.75 429.539 195.112 429.781 194.368 429.81 193.6 430.01 192.44 430.11 191.25 430.2 190.07 430.28 189.07 430.38 188.07 430.38 187.07 430.426 185.94 430.335 184.808 430.11 183.7 429.859 182.757 429.378 181.891 428.71 181.18L428.51 180.96C427.192 179.582 425.592 178.504 423.82 177.8 421.27 176.845 418.596 176.262 415.88 176.07 413.168 175.878 410.467 175.544 407.79 175.07 407.637 175.025 407.473 175.025 407.32 175.07 407.099 175.192 406.956 175.418 406.94 175.67 406.716 176.938 407.241 178.222 408.29 178.97 406.48 179.11 404.4 178.17 402.66 177.69 402.376 177.569 402.054 177.569 401.77 177.69 401.595 177.812 401.471 177.993 401.42 178.2 401.293 178.67 401.276 179.162 401.37 179.64 401.529 181.087 402.067 182.467 402.93 183.64 404.278 185.395 406.182 186.639 408.33 187.17 409.911 187.475 411.53 187.536 413.13 187.35Z" fill="#263238"/><path d="M415.24 211.16C415.24 211.16 420.86 209.98 422.82 208.89 423.987 208.251 424.935 207.276 425.54 206.09 425.245 207.281 424.718 208.402 423.99 209.39 422.56 211.31 415.24 212.71 415.24 212.71Z" fill="#F28F8F"/><path d="M416.59 196C416.567 196.643 417.068 197.183 417.71 197.21 418.382 197.265 418.971 196.766 419.026 196.094 419.081 195.423 418.581 194.833 417.91 194.778 417.238 194.723 416.649 195.223 416.594 195.894 416.591 195.929 416.59 195.965 416.59 196Z" fill="#263238"/><path d="M418.39 191.15 420.8 192.54C421.164 191.829 420.92 190.958 420.24 190.54 419.604 190.183 418.8 190.409 418.443 191.045 418.424 191.079 418.406 191.114 418.39 191.15Z" fill="#263238"/><path d="M415.74 204.11 413.17 205.11C413.378 205.82 414.123 206.227 414.833 206.019 414.862 206.01 414.891 206.001 414.92 205.99 415.646 205.677 416.005 204.855 415.74 204.11Z" fill="#F28F8F"/><path d="M406.25 192.18 408.45 190.42C408.062 189.816 407.258 189.64 406.654 190.028 406.614 190.053 406.576 190.081 406.54 190.11 405.931 190.626 405.807 191.517 406.25 192.18Z" fill="#263238"/><path d="M407.22 195.67C407.27 196.292 407.814 196.756 408.436 196.706 409.059 196.657 409.523 196.112 409.473 195.49 409.426 194.904 408.938 194.452 408.35 194.45 407.704 194.471 407.198 195.012 407.22 195.658 407.22 195.662 407.22 195.666 407.22 195.67Z" fill="#263238"/><path d="M413.25 194.73 413.12 201.84 409.08 200.92 413.25 194.73Z" fill="#F28F8F"/><path d="M317.31 254.28 323.58 250.66 326.06 247.65 319.8 251.27 317.31 254.28" fill="#ED1C24"/><path d="M317.31 254.28 323.58 250.66 326.06 247.65 319.8 251.27 317.31 254.28" opacity="0.4"/><path d="M334.36 264.12 340.63 260.5 345.86 255.87 339.6 259.48 334.36 264.12" fill="#ED1C24"/><path d="M334.36 264.12 340.63 260.5 345.86 255.87 339.6 259.48 334.36 264.12" opacity="0.4"/><path d="M387.62 276.61C389.103 278.597 390 280.96 390.21 283.43 388.734 281.439 387.838 279.079 387.62 276.61ZM402.19 276.8C400.08 262.45 392.37 248.26 383.19 242.95 378.78 240.4 374.7 240.31 371.43 242.22L365.53 245.62 365.2 245.82C364.937 245.965 364.684 246.125 364.44 246.3 363.955 246.634 363.5 247.008 363.08 247.42L362.88 247.61C362.7 247.79 362.51 248 362.34 248.2 362.17 248.4 361.91 248.71 361.71 248.98 361.285 249.539 360.901 250.127 360.56 250.74 360.38 251.05 360.21 251.38 360.05 251.74L308.52 222 302.26 225.61 302.26 229.61 302.79 229.91 303.29 230.2 303.29 231 302.29 231.59 302.29 233.91 309.86 249.91 317.34 254.24 319.83 251.24 326.43 255.19 330.22 261.68 334.4 264.09 339.63 259.45 346.05 263.16 348.21 272.07 359 278.31C359.533 280.578 360.201 282.812 361 285 361.07 285.22 361.16 285.45 361.25 285.7 364.83 295.1 370.52 303.15 376.94 306.86 377.709 307.316 378.516 307.708 379.35 308.03 379.791 308.205 380.242 308.356 380.7 308.48 381.1 308.587 381.5 308.677 381.9 308.75 383.163 308.98 384.457 308.98 385.72 308.75L386.24 308.62C386.489 308.57 386.733 308.5 386.97 308.41L387.53 308.19C387.728 308.118 387.919 308.028 388.1 307.92 388.285 307.84 388.465 307.75 388.64 307.65L388.9 307.49C388.947 307.475 388.991 307.451 389.03 307.42 390.46 306.6 393.98 304.56 394.94 304.02 399.7 301.26 402.78 294.28 402.78 284.41 402.772 281.862 402.575 279.319 402.19 276.8Z" fill="#ED1C24"/><path d="M385.79 288.72C383.31 287.29 381.31 283.05 381.31 279.25 381.31 275.45 383.31 273.52 385.79 274.94 388.27 276.36 390.26 280.61 390.26 284.42 390.26 288.23 388.26 290.15 385.79 288.72ZM395.92 280.41C393.82 266.07 386.11 251.87 376.92 246.57 372.66 244.11 368.72 243.93 365.52 245.62L365.19 245.82C364.927 245.965 364.673 246.125 364.43 246.3 363.945 246.634 363.49 247.008 363.07 247.42L362.87 247.61C362.69 247.79 362.5 248 362.33 248.2 362.16 248.4 361.9 248.71 361.7 248.98 361.276 249.539 360.891 250.127 360.55 250.74 360.37 251.05 360.2 251.38 360.04 251.74 359.108 253.673 358.435 255.721 358.04 257.83L302.25 225.61 302.25 229.61 302.78 229.91 303.28 230.2 303.28 231 302.28 231.59 302.28 233.91 309.85 249.91 317.33 254.24 319.82 251.24 326.42 255.19 330.21 261.68 334.39 264.09 339.62 259.45 346.04 263.16 348.2 272.07 359 278.31C359.533 280.578 360.201 282.812 361 285 361.07 285.22 361.16 285.45 361.25 285.7 364.83 295.1 370.52 303.15 376.94 306.86 377.709 307.316 378.516 307.708 379.35 308.03 379.791 308.205 380.242 308.356 380.7 308.48 381.1 308.587 381.5 308.677 381.9 308.75 383.163 308.98 384.457 308.98 385.72 308.75L386.24 308.62C386.489 308.57 386.733 308.5 386.97 308.41L387.53 308.19C387.728 308.118 387.919 308.028 388.1 307.92 388.285 307.84 388.465 307.75 388.64 307.65L388.9 307.49C388.947 307.475 388.991 307.451 389.03 307.42 393.59 304.54 396.52 297.66 396.52 288.03 396.503 285.479 396.303 282.932 395.92 280.41Z" fill="#ED1C24"/><path d="M390.26 284.41C390.26 288.22 388.26 290.15 385.79 288.72 383.32 287.29 381.31 283.06 381.31 279.25 381.31 275.44 383.31 273.51 385.79 274.94 386.504 275.375 387.126 275.945 387.62 276.62 387.835 279.089 388.732 281.45 390.21 283.44 390.247 283.762 390.263 284.086 390.26 284.41Z" opacity="0.4"/><path d="M402.76 284.4C402.76 294.27 399.68 301.25 394.92 304.01 393.92 304.55 390.44 306.59 389.01 307.41 393.57 304.53 396.5 297.65 396.5 288.02 396.489 285.473 396.296 282.929 395.92 280.41 393.82 266.07 386.11 251.87 376.92 246.57 372.66 244.11 368.72 243.93 365.52 245.62L371.42 242.22C374.69 240.31 378.77 240.4 383.18 242.95 392.37 248.26 400.08 262.45 402.18 276.8 402.561 279.315 402.755 281.856 402.76 284.4Z" fill="#FFFFFF" opacity="0.4"/><path d="M396.5 288C396.5 297.63 393.57 304.51 389.01 307.39 390.44 306.57 393.96 304.53 394.92 303.99 399.68 301.23 402.76 294.25 402.76 284.38 402.76 284.02 402.76 283.65 402.76 283.28L396.5 286.9C396.49 287.29 396.5 287.65 396.5 288Z" fill="#ED1C24"/><path d="M396.5 288C396.5 297.63 393.57 304.51 389.01 307.39 390.44 306.57 393.96 304.53 394.92 303.99 399.68 301.23 402.76 294.25 402.76 284.38 402.76 284.02 402.76 283.65 402.76 283.28L396.5 286.9C396.49 287.29 396.5 287.65 396.5 288Z" opacity="0.1"/><path d="M358.28 261.92 358.28 263.95 302.26 231.61 303.29 231.01 303.29 230.17 358.28 261.92Z" opacity="0.15"/><path d="M358.28 262.76 358.28 263.95 302.26 231.61 303.29 231.01 303.29 231 358.28 262.76Z" opacity="0.15"/><path d="M382.64 304C380.517 303.945 378.446 303.327 376.64 302.21 367.51 296.94 360.08 281.26 360.08 267.26 360.08 259.09 362.55 252.99 366.86 250.5 369.86 248.76 373.41 248.98 377.14 251.13 386.26 256.4 393.69 272.13 393.69 286.13 393.69 294.29 391.22 300.4 386.91 302.88 385.61 303.622 384.137 304.009 382.64 304ZM371.19 250.35C369.857 250.343 368.546 250.688 367.39 251.35 363.46 253.62 361.11 259.57 361.11 267.25 361.11 280.93 368.31 296.25 377.17 301.33 380.56 303.33 383.77 303.51 386.44 301.97 390.37 299.7 392.72 293.76 392.72 286.08 392.72 272.39 385.52 257.08 376.67 251.99 375.016 250.984 373.126 250.432 371.19 250.39Z" opacity="0.15"/><path d="M360 251.72C359.068 253.653 358.395 255.701 358 257.81L302.21 225.59 308.47 221.98Z" fill="#FFFFFF" opacity="0.4"/><path d="M432.51 254.85C435.43 249.32 438.77 236.9 440.43 230.63 442.79 221.73 438.97 216.13 434.63 215.9 431.92 216.32 422.99 248.79 422.99 248.79 421.99 249.58 408.42 256.47 404.06 258.2 403.28 258.495 402.42 258.495 401.64 258.2 399.55 257.44 398.12 257.58 396.07 257.38 394.46 257.22 393.65 256.65 393.44 256.99 393.045 257.865 393.389 258.897 394.23 259.36 395.113 259.874 396.052 260.284 397.03 260.58 395.277 261.112 393.451 261.358 391.62 261.31 387.42 261.22 385.91 263.04 389.17 267.31 391.17 269.97 394.48 270.81 401.87 268.26 403.99 267.52 406.87 266.09 409.56 265.12 415.1 263.12 416.56 262.88 420.78 261.45 426.93 259.37 431.21 257.31 432.51 254.85Z" fill="#FFA8A7"/><path d="M433 215.06C435.55 215.41 438 215.98 439.51 218.06 441.02 220.14 442.23 223.06 440.75 231.01 439.617 236.601 438.1 242.107 436.21 247.49 436.21 247.49 430.27 250.03 423.96 243.59L428.3 226.81C428.3 226.81 429 215.9 433 215.06Z" fill="#455A64"/></g></g></svg>